# xmcd
#
# Track frame offsets:
#	150
#	12606
#	25307
#	39850
#	52046
#	64235
#	75307
#	87829
#	100472
#	113355
#	126422
#	137658
#	150668
#	164297
#	177310
#	189898
#	201555
#	213833
#	225559
#	239046
#	251497
#	263528
#	276897
#	290722
#	300565
#	310231
#	322582
#
# Disc length: 4464 seconds
#
# Revision: 1
# Processed by: cddbd v1.5.2PL0 Copyright (c) Steve Scherf et al.
# Submitted via: audiograbber 1.83.01
#
DISCID=73116e1b
DTITLE=mixed - Poklady US country 2
DYEAR=1900
DGENRE=
TTITLE0=Hank Williams - Move it on over
TTITLE1=Al Dexter and His Troopers - Pistol packi'n mama
TTITLE2=Ernest Tubb - Soldier's last letter
TTITLE3=Ted Daffan's Texans - Born to lose
TTITLE4=Elton Britt and The Skytoppers - There's a star spangled banner waving so
TTITLE4=mewhere
TTITLE5=Jimmie Davis - There's a new moon over my shoulder
TTITLE6=Gene Autry - At mail call today
TTITLE7=Jack Guthrie and His Oklahomans - Oklahoma hills
TTITLE8=Spade Cooley and His Orchestra - Shame on you
TTITLE9=Wesley Tuttle - With tears in my eyes
TTITLE10=Bob Wills and His Texas Playboys - Silver dew on the blue grass tonight
TTITLE11=Tex Ritter - You will have to pay
TTITLE12=Merle Travis - Divorce my C.O.D.
TTITLE13=Tex Williams and his Western Caravan - Smoke, smoke, smoke (That Cigaret
TTITLE13=te!)
TTITLE14=Bill Monroe and His Blue Grass Boys - Kentucky waltz
TTITLE15=Eddy Arnold - I'll hold you in my heart (Till I Can Hold In My Arms)
TTITLE16=Eddy Arnold - Bouquet of roses
TTITLE17=Cowboy Copas - Signed, sealed and delivered
TTITLE18=Pee Wee King and His Golden West Boys - Tennessee waltz
TTITLE19=Jimmy Wakely - I love you so much it hurts
TTITLE20=Red Foley and The Cumberland River Boys - Tennessee saturday night
TTITLE21=George morgan - Candy kisses
TTITLE22=Wayne Raney - Why don't you haul off and love me
TTITLE23=Jimmy Wakely and Margaret Whiting - Slippin' around
TTITLE24=Tennessee Ernie Ford - Anticipation blues
TTITLE25=Leon Payne - I love you because
TTITLE26=Hank Williams - Lovesick blues
EXTD=
EXTT0=
EXTT1=
EXTT2=
EXTT3=
EXTT4=
EXTT5=
EXTT6=
EXTT7=
EXTT8=
EXTT9=
EXTT10=
EXTT11=
EXTT12=
EXTT13=
EXTT14=
EXTT15=
EXTT16=
EXTT17=
EXTT18=
EXTT19=
EXTT20=
EXTT21=
EXTT22=
EXTT23=
EXTT24=
EXTT25=
EXTT26=
PLAYORDER=
